Killers *2010* [BluRay][1080p][ENG, POL]

General information:
Country: USA
Release: 1 June 2010
Genre: Action, Comedy, Romance, Thriller 
Director: Robert Luketic
Screenplay: Bob DeRosa, Ted Griffin
Original Music: Rolfe Kent 
Cinematography by: Russell Carpenter
Duration: 1h 40mn
Language: English, Polish
Subtitles: English, Polish
Rating: 6.1/10 - 5362 votes

Cast:
Ashton Kutcher  ...  Spencer Aimes  
Katherine Heigl  ...  Jen Kornfeldt  
Tom Selleck  ...  Mr. Kornfeldt  
Catherine O'Hara  ...  Mrs. Kornfeldt  
Katheryn Winnick  ...  Vivian  
Kevin Sussman  ...  Mac Bailey  
Lisa Ann Walter  ...  Olivia Brooks  
Casey Wilson  ...  Kristen  
Rob Riggle  ...  Henry  
Martin Mull  ...  Holbrook  
Alex Borstein  ...  Lily Baily  
Usher Raymond  ...  Kevin the Manager (as Usher Raymond IV)  
Letoya Luckett  ...  Amanda (as LeToya Luckett)  
Michael Daniel Cassady  ...  Milo  
Larry Joe Campbell  ...  Pete Denham  

Plot:
A vacationing woman meets her ideal man, leading to a swift marriage. Back at home, however, their idyllic life is upset when they discover their neighbors could be assassins who have been contracted to kill the couple. 

Specifications:
General
Format                           : Matroska
Overall bit rate                 : 10.6 Mbps

Video
Format                           : AVC
Format/Info                      : Advanced Video Codec
Format profile                   : High@L4.0
Format settings, CABAC           : Yes
Format settings, ReFrames        : 3 frames
Format settings, GOP             : M=4, N=16
Muxing mode                      : Container profile=Unknown@4.0
Codec ID                         : V_MPEG4/ISO/AVC
Bit rate                         : 8 622 Kbps
Width                            : 1 920 pixels
Height                           : 1 080 pixels
Display aspect ratio             : 16:9
Frame rate                       : 23.976 fps

Audio 1
Format                           : DTS
Format/Info                      : Digital Theater Systems
Codec ID                         : A_DTS
Bit rate mode                    : Constant
Bit rate                         : 1 510 Kbps
Channel(s)                       : 6 channels
Channel positions                : Front: L C R, Side: L R, LFE
Sampling rate                    : 48.0 KHz
Bit depth                        : 24 bits
Stream size                      : 1.06 GiB (14%)
Title                            : English

Audio 2
Format                           : AC-3
Format/Info                      : Audio Coding 3
Mode extension                   : CM (complete main)
Codec ID                         : A_AC3
Bit rate mode                    : Constant
Bit rate                         : 448 Kbps
Channel(s)                       : 6 channels
Channel positions                : Front: L C R, Side: L R, LFE
Sampling rate                    : 48.0 KHz
Stream size                      : 322 MiB (4%)
Title                            : Polish
Language                         : Polish

Text 1
Format                           : UTF-8
Codec ID                         : S_TEXT/UTF8
Codec ID/Info                    : UTF-8 Plain Text
Title                            : English

Text 2
Format                           : UTF-8
Codec ID                         : S_TEXT/UTF8
Codec ID/Info                    : UTF-8 Plain Text
Title                            : Polish
Language                         : Polish
